<svg width="196" height="30" viewBox="0 0 196 30" fill="none" xmlns="http://www.w3.org/2000/svg">
<path d="M27.25 8.731C27.25 4.88143 24.1186 1.75 20.2692 1.75C17.5704 1.75 15.1516 3.32181 14.0001 5.66239C12.8484 3.32181 10.4294 1.75 7.7308 1.75C3.88142 1.75 0.75 4.88143 0.75 8.731C0.75 11.4277 2.26822 13.8058 4.5914 14.9656C2.26822 16.1253 0.75 18.5034 0.75 21.2002C0.75 25.0497 3.88142 28.1812 7.7308 28.1812C10.4294 28.1812 12.8484 26.6093 14.0001 24.2688C15.1516 26.6093 17.5704 28.1812 20.2692 28.1812C24.1186 28.1812 27.25 25.0497 27.25 21.2002C27.25 18.5034 25.7318 16.1253 23.4086 14.9656C25.7318 13.8058 27.25 11.4277 27.25 8.731Z" stroke="#3DB370" stroke-width="2"/>
<path fill-rule="evenodd" clip-rule="evenodd" d="M125.662 10.345C129.769 10.345 131.822 12.8883 131.822 17.975V27.32C131.822 27.7867 131.659 28.1833 131.332 28.51C131.029 28.8367 130.632 29 130.142 29C129.675 29 129.279 28.8367 128.952 28.51C128.649 28.1833 128.497 27.7867 128.497 27.32V17.975C128.497 14.9417 127.214 13.425 124.647 13.425C123.27 13.425 122.127 13.8683 121.217 14.755C120.307 15.6183 119.852 16.6917 119.852 17.975V27.32C119.852 27.7867 119.689 28.1833 119.362 28.51C119.059 28.8367 118.662 29 118.172 29C117.682 29 117.285 28.8483 116.982 28.545C116.679 28.2183 116.527 27.81 116.527 27.32V4.77998C116.527 4.31331 116.679 3.91665 116.982 3.58998C117.309 3.26331 117.705 3.09998 118.172 3.09998C118.662 3.09998 119.059 3.26331 119.362 3.58998C119.689 3.91665 119.852 4.31331 119.852 4.77998V13.635C120.435 12.725 121.252 11.955 122.302 11.325C123.352 10.6717 124.472 10.345 125.662 10.345ZM47.335 14.965V7.71998H57.52C57.9867 7.71998 58.3833 7.56831 58.71 7.26498C59.0367 6.93831 59.2 6.56498 59.2 6.14498C59.2 5.65498 59.0367 5.25831 58.71 4.95498C58.4067 4.65165 58.01 4.49998 57.52 4.49998H45.585C45.1183 4.49998 44.7217 4.66331 44.395 4.98998C44.0683 5.31664 43.905 5.71331 43.905 6.17998V27.32C43.905 27.7867 44.0683 28.1833 44.395 28.51C44.7217 28.8367 45.13 29 45.62 29C46.0867 29 46.4833 28.8367 46.81 28.51C47.16 28.1833 47.335 27.7867 47.335 27.32V18.15H55.945C56.435 18.15 56.8317 17.9983 57.135 17.695C57.4617 17.3917 57.625 17.03 57.625 16.61C57.625 16.12 57.4617 15.7233 57.135 15.42C56.8317 15.1167 56.435 14.965 55.945 14.965H47.335ZM73.6432 10.73C73.1999 10.4033 72.6749 10.24 72.0682 10.24C70.7616 10.2633 69.5949 10.6367 68.5682 11.36C67.5416 12.06 66.7716 12.9817 66.2582 14.125V12.34C66.2582 11.8733 66.0949 11.4767 65.7682 11.15C65.4649 10.8233 65.0682 10.66 64.5782 10.66C64.1116 10.66 63.7149 10.8233 63.3882 11.15C63.0849 11.4767 62.9332 11.8733 62.9332 12.34V27.32C62.9332 27.81 63.0849 28.2183 63.3882 28.545C63.6916 28.8483 64.0882 29 64.5782 29C65.0682 29 65.4649 28.8367 65.7682 28.51C66.0949 28.1833 66.2582 27.7867 66.2582 27.32V18.885C66.2582 17.8117 66.4682 16.8433 66.8882 15.98C67.3316 15.0933 67.8916 14.405 68.5682 13.915C69.2682 13.4017 69.9799 13.145 70.7032 13.145C70.9832 13.145 71.3682 13.2267 71.8582 13.39C72.2782 13.53 72.5932 13.6 72.8032 13.6C73.2232 13.6 73.5732 13.46 73.8532 13.18C74.1566 12.8767 74.3082 12.445 74.3082 11.885C74.3082 11.4183 74.0866 11.0333 73.6432 10.73ZM92.7051 19.13C92.6818 19.55 92.5068 19.9117 92.1801 20.215C91.8535 20.495 91.4685 20.635 91.0251 20.635H78.7051C78.8685 22.3383 79.5101 23.7033 80.6301 24.73C81.7735 25.7567 83.1618 26.27 84.7951 26.27C85.9151 26.27 86.8251 26.1067 87.5251 25.78C88.2251 25.4533 88.8435 25.0333 89.3801 24.52C89.7301 24.31 90.0685 24.205 90.3951 24.205C90.7918 24.205 91.1185 24.345 91.3751 24.625C91.6551 24.905 91.7951 25.2317 91.7951 25.605C91.7951 26.095 91.5618 26.5383 91.0951 26.935C90.4185 27.6117 89.5201 28.1833 88.4001 28.65C87.2801 29.1167 86.1368 29.35 84.9701 29.35C83.0801 29.35 81.4118 28.9533 79.9651 28.16C78.5418 27.3667 77.4335 26.2583 76.6401 24.835C75.8701 23.4117 75.4851 21.8017 75.4851 20.005C75.4851 18.045 75.8818 16.33 76.6751 14.86C77.4918 13.3667 78.5535 12.2233 79.8601 11.43C81.1901 10.6367 82.6135 10.24 84.1301 10.24C85.6235 10.24 87.0235 10.625 88.3301 11.395C89.6368 12.165 90.6868 13.2267 91.4801 14.58C92.2735 15.9333 92.6818 17.45 92.7051 19.13ZM80.7351 14.44C81.6918 13.6933 82.8235 13.32 84.1301 13.32C85.3901 13.32 86.5101 13.7167 87.4901 14.51C88.4935 15.3033 89.0535 16.3183 89.1701 17.555V17.835H78.8451C79.1485 16.295 79.7785 15.1633 80.7351 14.44ZM112.666 19.13C112.643 19.55 112.468 19.9117 112.141 20.215C111.814 20.495 111.429 20.635 110.986 20.635H98.6661C98.8294 22.3383 99.4711 23.7033 100.591 24.73C101.734 25.7567 103.123 26.27 104.756 26.27C105.876 26.27 106.786 26.1067 107.486 25.78C108.186 25.4533 108.804 25.0333 109.341 24.52C109.691 24.31 110.029 24.205 110.356 24.205C110.753 24.205 111.079 24.345 111.336 24.625C111.616 24.905 111.756 25.2317 111.756 25.605C111.756 26.095 111.523 26.5383 111.056 26.935C110.379 27.6117 109.481 28.1833 108.361 28.65C107.241 29.1167 106.098 29.35 104.931 29.35C103.041 29.35 101.373 28.9533 99.9261 28.16C98.5027 27.3667 97.3944 26.2583 96.6011 24.835C95.8311 23.4117 95.4461 21.8017 95.4461 20.005C95.4461 18.045 95.8427 16.33 96.6361 14.86C97.4527 13.3667 98.5144 12.2233 99.8211 11.43C101.151 10.6367 102.574 10.24 104.091 10.24C105.584 10.24 106.984 10.625 108.291 11.395C109.598 12.165 110.648 13.2267 111.441 14.58C112.234 15.9333 112.643 17.45 112.666 19.13ZM100.696 14.44C101.653 13.6933 102.784 13.32 104.091 13.32C105.351 13.32 106.471 13.7167 107.451 14.51C108.454 15.3033 109.014 16.3183 109.131 17.555V17.835H98.8061C99.1094 16.295 99.7394 15.1633 100.696 14.44ZM152.861 10.905C152.557 10.5783 152.161 10.415 151.671 10.415C151.181 10.415 150.784 10.5783 150.481 10.905C150.177 11.2317 150.026 11.64 150.026 12.13V12.97C149.396 12.1767 148.544 11.5233 147.471 11.01C146.421 10.4967 145.277 10.24 144.041 10.24C142.501 10.24 141.089 10.6483 139.806 11.465C138.522 12.2817 137.507 13.425 136.761 14.895C136.037 16.3417 135.676 17.975 135.676 19.795C135.676 21.615 136.037 23.26 136.761 24.73C137.507 26.1767 138.522 27.3083 139.806 28.125C141.112 28.9417 142.559 29.35 144.146 29.35C145.359 29.35 146.491 29.07 147.541 28.51C148.591 27.9267 149.419 27.2267 150.026 26.41V27.32C150.026 27.81 150.177 28.2183 150.481 28.545C150.784 28.8483 151.181 29 151.671 29C152.161 29 152.557 28.8367 152.861 28.51C153.187 28.1833 153.351 27.7867 153.351 27.32V12.13C153.351 11.6167 153.187 11.2083 152.861 10.905ZM144.531 26.27C145.627 26.27 146.596 25.99 147.436 25.43C148.299 24.87 148.964 24.1 149.431 23.12C149.921 22.14 150.166 21.0317 150.166 19.795C150.166 18.5817 149.921 17.485 149.431 16.505C148.964 15.525 148.299 14.755 147.436 14.195C146.596 13.6117 145.627 13.32 144.531 13.32C143.434 13.32 142.454 13.6 141.591 14.16C140.751 14.72 140.086 15.49 139.596 16.47C139.129 17.45 138.896 18.5583 138.896 19.795C138.896 21.0317 139.129 22.14 139.596 23.12C140.086 24.1 140.751 24.87 141.591 25.43C142.454 25.99 143.434 26.27 144.531 26.27ZM173.94 27.32V17.8C173.94 12.76 171.84 10.24 167.64 10.24C166.403 10.24 165.236 10.5667 164.14 11.22C163.066 11.85 162.226 12.6317 161.62 13.565V12.34C161.62 11.8733 161.456 11.4767 161.13 11.15C160.826 10.8233 160.43 10.66 159.94 10.66C159.473 10.66 159.076 10.8233 158.75 11.15C158.446 11.4767 158.295 11.8733 158.295 12.34V27.32C158.295 27.81 158.446 28.2183 158.75 28.545C159.053 28.8483 159.45 29 159.94 29C160.43 29 160.826 28.8367 161.13 28.51C161.456 28.1833 161.62 27.7867 161.62 27.32V17.835C161.62 17.0183 161.83 16.2717 162.25 15.595C162.693 14.895 163.288 14.3467 164.035 13.95C164.805 13.53 165.656 13.32 166.59 13.32C168.013 13.32 169.04 13.7283 169.67 14.545C170.3 15.3617 170.615 16.4583 170.615 17.835V27.32C170.615 27.7867 170.766 28.1833 171.07 28.51C171.396 28.8367 171.793 29 172.26 29C172.75 29 173.146 28.8367 173.45 28.51C173.776 28.1833 173.94 27.7867 173.94 27.32ZM193.78 3.09998C194.27 3.09998 194.667 3.26331 194.97 3.58998C195.297 3.89331 195.46 4.28998 195.46 4.77998V27.32C195.46 27.7867 195.297 28.1833 194.97 28.51C194.667 28.8367 194.27 29 193.78 29C193.29 29 192.893 28.8483 192.59 28.545C192.287 28.2183 192.135 27.81 192.135 27.32V26.34C191.552 27.18 190.723 27.8917 189.65 28.475C188.6 29.0583 187.468 29.35 186.255 29.35C184.668 29.35 183.233 28.9417 181.95 28.125C180.667 27.3083 179.652 26.1767 178.905 24.73C178.158 23.26 177.785 21.615 177.785 19.795C177.785 17.975 178.147 16.3417 178.87 14.895C179.617 13.425 180.632 12.2817 181.915 11.465C183.198 10.6483 184.61 10.24 186.15 10.24C187.387 10.24 188.53 10.4967 189.58 11.01C190.63 11.5233 191.482 12.1883 192.135 13.005V4.77998C192.135 4.28998 192.287 3.89331 192.59 3.58998C192.893 3.26331 193.29 3.09998 193.78 3.09998ZM189.545 25.43C188.705 25.99 187.737 26.27 186.64 26.27C185.543 26.27 184.563 25.99 183.7 25.43C182.86 24.87 182.195 24.1 181.705 23.12C181.238 22.14 181.005 21.0317 181.005 19.795C181.005 18.5817 181.238 17.485 181.705 16.505C182.195 15.5017 182.86 14.72 183.7 14.16C184.563 13.6 185.543 13.32 186.64 13.32C187.737 13.32 188.705 13.6 189.545 14.16C190.408 14.72 191.073 15.5017 191.54 16.505C192.03 17.485 192.275 18.5817 192.275 19.795C192.275 21.0317 192.03 22.14 191.54 23.12C191.073 24.1 190.408 24.87 189.545 25.43Z" fill="#16133D"/>
</svg>
